# xmcd
#
# Track frame offsets: 
#        150
#        15302
#        31048
#        50382
#        76470
#        96727
#        117523
#        141875
#        178639
#        200986
#
# Disc length: 3520 seconds
#
# Revision: 0
# Processed by: cddbd v1.5.2PL0 Copyright (c) Steve Scherf et al.
# Submitted via: ExactAudioCopyFreeDBPlugin 1.0
#
DISCID=880dbe0a
DTITLE=Catfish - Broken Man
DYEAR=2017
DGENRE=Blues
TTITLE0=Hit The Ground Running
TTITLE1=Leading Me On
TTITLE2=Some Time Alone
TTITLE3=All I Ask Of You
TTITLE4=Never Go Back
TTITLE5=Better Days
TTITLE6=Part As Strangers
TTITLE7=Broken Man
TTITLE8=Big Shot
TTITLE9=Make It Rain
EXTD=
EXTT0=
EXTT1=
EXTT2=
EXTT3=
EXTT4=
EXTT5=
EXTT6=
EXTT7=
EXTT8=
EXTT9=
PLAYORDER=
